<svg width="12" height="20" viewBox="0 0 12 20" fill="none" xmlns="http://www.w3.org/2000/svg">
<path d="M10.9991 0.00416134L8.40562 0C5.49188 0 3.6089 1.9319 3.6089 4.92203V7.19141H1.00122C0.775887 7.19141 0.593414 7.37409 0.593414 7.59943V10.8875C0.593414 11.1128 0.776095 11.2953 1.00122 11.2953H3.6089V19.5922C3.6089 19.8175 3.79137 20 4.0167 20H7.41898C7.64431 20 7.82678 19.8173 7.82678 19.5922V11.2953H10.8758C11.1011 11.2953 11.2836 11.1128 11.2836 10.8875L11.2848 7.59943C11.2848 7.49123 11.2417 7.38762 11.1654 7.31105C11.089 7.23448 10.985 7.19141 10.8768 7.19141H7.82678V5.26763C7.82678 4.34298 8.04712 3.87358 9.25161 3.87358L10.9987 3.87295C11.2239 3.87295 11.4063 3.69027 11.4063 3.46514V0.411972C11.4063 0.187052 11.2241 0.00457747 10.9991 0.00416134Z" fill="#B89B5E"/>
</svg>
