<svg width="14" height="20" viewBox="0 0 14 20" fill="none" xmlns="http://www.w3.org/2000/svg">
<path d="M13.5634 4.9778C13.4922 4.71098 13.3477 4.42669 13.2407 4.17778C11.961 1.10222 9.16472 0 6.9069 0C3.8844 0 0.555463 2.02672 0.111023 6.20426V7.05776C0.111023 7.09338 0.123299 7.41334 0.140736 7.57339C0.389879 9.5643 1.96086 11.6802 3.13413 13.6711C4.3964 15.8042 5.70619 17.9025 7.00385 20C7.80401 18.6312 8.60128 17.2445 9.38322 15.9111C9.59632 15.5198 9.8437 15.1288 10.057 14.7553C10.1992 14.5066 10.4709 14.2579 10.595 14.0266C11.8572 11.7156 13.8889 9.38677 13.8889 7.09333V6.15116C13.889 5.90253 13.5808 5.03141 13.5634 4.9778ZM6.96223 9.26233C6.07377 9.26233 5.10128 8.81808 4.62127 7.5912C4.54975 7.3959 4.55552 7.00452 4.55552 6.96866V6.41755C4.55552 4.8535 5.88354 4.14225 7.03886 4.14225C8.46118 4.14225 9.56122 5.28018 9.56122 6.7025C9.56122 8.12478 8.38455 9.26233 6.96223 9.26233Z" fill="#B89B5E"/>
</svg>
