<svg width="227" height="19" viewBox="0 0 227 19" fill="none" xmlns="http://www.w3.org/2000/svg">
<path d="M6.368 18.384C5.712 18.384 5.008 18.28 4.256 18.072C3.52 17.864 2.84 17.576 2.216 17.208H2.192L2.264 18.216H0.416V12.6H2C2.208 13.912 2.712 14.92 3.512 15.624C4.312 16.312 5.288 16.656 6.44 16.656C7.272 16.656 7.96 16.44 8.504 16.008C9.048 15.56 9.32 15.024 9.32 14.4C9.32 13.888 9.136 13.448 8.768 13.08C8.416 12.712 8.016 12.424 7.568 12.216C7.136 12.008 6.44 11.712 5.48 11.328C3.72 10.624 2.368 9.824 1.424 8.928C0.496 8.032 0.032 6.856 0.032 5.4C0.032 4.664 0.216 3.952 0.584 3.264C0.952 2.56 1.552 1.976 2.384 1.512C3.232 1.048 4.32 0.816 5.648 0.816C6.336 0.816 7.056 0.92 7.808 1.128C8.56 1.32 9.184 1.6 9.68 1.968H9.704L9.608 0.983999H11.48V6.576H9.896C9.688 5.264 9.224 4.264 8.504 3.576C7.8 2.888 6.896 2.544 5.792 2.544C5.072 2.544 4.448 2.744 3.92 3.144C3.408 3.528 3.152 4.016 3.152 4.608C3.152 5.312 3.448 5.904 4.04 6.384C4.632 6.864 5.632 7.392 7.04 7.968C8.656 8.608 9.968 9.352 10.976 10.2C12 11.032 12.512 12.144 12.512 13.536C12.512 14.48 12.256 15.32 11.744 16.056C11.232 16.792 10.512 17.368 9.584 17.784C8.656 18.184 7.584 18.384 6.368 18.384ZM13.2757 16.344C13.6917 16.344 14.0357 16.224 14.3077 15.984C14.5957 15.744 14.8197 15.456 14.9797 15.12C15.1397 14.768 15.3397 14.264 15.5797 13.608L20.2597 0.767999H21.9397L27.0517 13.848C27.1797 14.168 27.3157 14.568 27.4597 15.048C27.6037 15.512 27.6917 15.904 27.7237 16.224C28.2517 16.176 28.7157 16.152 29.1157 16.152V18H22.6597V16.416C23.4277 16.416 23.8117 16.096 23.8117 15.456C23.8117 15.136 23.7237 14.752 23.5477 14.304L23.0677 12.984L17.8597 13.08L17.4757 14.208C17.4277 14.336 17.3157 14.624 17.1397 15.072C16.9797 15.52 16.8357 15.88 16.7077 16.152C17.2197 16.104 17.7877 16.08 18.4117 16.08V18H13.2757V16.344ZM22.4677 11.28L21.3637 8.28C20.8997 6.968 20.5957 5.872 20.4517 4.992H20.4277C20.1717 6.144 19.8757 7.2 19.5397 8.16L18.4597 11.28H22.4677ZM35.7629 10.344C35.5229 9.784 35.2349 9 34.8989 7.992C34.5789 6.984 34.3069 5.96 34.0829 4.92H34.0589C34.1069 6.376 34.1309 7.704 34.1309 8.904V9.72L34.1069 14.064C34.1069 15.056 34.0669 15.776 33.9869 16.224C34.5149 16.176 35.1229 16.152 35.8109 16.152V18H30.3389V16.416C30.7709 16.4 31.0989 16.352 31.3229 16.272C31.5469 16.176 31.7229 15.984 31.8509 15.696C31.9789 15.408 32.0429 14.952 32.0429 14.328L32.1869 5.136C32.2189 3.968 32.2509 3.248 32.2829 2.976L30.4829 3.048V1.2H35.7869L39.4109 10.488C39.6509 11.112 39.9069 11.8 40.1789 12.552C40.4509 13.304 40.6429 13.88 40.7549 14.28H40.7789C40.8429 14.12 41.0189 13.624 41.3069 12.792C41.5309 12.136 41.7309 11.576 41.9069 11.112L45.6269 1.2H51.1709V2.784C50.7389 2.8 50.4029 2.856 50.1629 2.952C49.9229 3.032 49.7389 3.216 49.6109 3.504C49.4829 3.792 49.4269 4.248 49.4429 4.872L49.8029 14.064C49.8509 14.88 49.8189 15.6 49.7069 16.224C50.2349 16.176 50.8429 16.152 51.5309 16.152V18H44.8589V16.416C45.2909 16.4 45.6189 16.352 45.8429 16.272C46.0829 16.176 46.2669 15.984 46.3949 15.696C46.5229 15.408 46.5789 14.952 46.5629 14.328L46.3709 9.24L46.3229 8.328C46.2429 6.776 46.1949 5.696 46.1789 5.088H46.1549L41.2349 18.24H39.0029L35.7629 10.344ZM59.8993 18.384C59.2433 18.384 58.5393 18.28 57.7873 18.072C57.0513 17.864 56.3713 17.576 55.7473 17.208H55.7233L55.7953 18.216H53.9473V12.6H55.5312C55.7393 13.912 56.2433 14.92 57.0433 15.624C57.8433 16.312 58.8193 16.656 59.9713 16.656C60.8033 16.656 61.4913 16.44 62.0353 16.008C62.5793 15.56 62.8513 15.024 62.8513 14.4C62.8513 13.888 62.6673 13.448 62.2993 13.08C61.9473 12.712 61.5473 12.424 61.0993 12.216C60.6673 12.008 59.9713 11.712 59.0113 11.328C57.2513 10.624 55.8993 9.824 54.9553 8.928C54.0273 8.032 53.5633 6.856 53.5633 5.4C53.5633 4.664 53.7473 3.952 54.1152 3.264C54.4833 2.56 55.0833 1.976 55.9153 1.512C56.7633 1.048 57.8513 0.816 59.1793 0.816C59.8673 0.816 60.5873 0.92 61.3393 1.128C62.0913 1.32 62.7153 1.6 63.2113 1.968H63.2353L63.1393 0.983999H65.0113V6.576H63.4273C63.2193 5.264 62.7553 4.264 62.0353 3.576C61.3313 2.888 60.4273 2.544 59.3233 2.544C58.6033 2.544 57.9793 2.744 57.4513 3.144C56.9393 3.528 56.6833 4.016 56.6833 4.608C56.6833 5.312 56.9793 5.904 57.5713 6.384C58.1633 6.864 59.1633 7.392 60.5713 7.968C62.1873 8.608 63.4993 9.352 64.5073 10.2C65.5313 11.032 66.0433 12.144 66.0433 13.536C66.0433 14.48 65.7873 15.32 65.2753 16.056C64.7633 16.792 64.0433 17.368 63.1153 17.784C62.1873 18.184 61.1153 18.384 59.8993 18.384ZM76.067 18.384C74.147 18.384 72.563 17.96 71.315 17.112C70.067 16.264 69.155 15.176 68.579 13.848C68.003 12.52 67.715 11.104 67.715 9.6C67.715 8.176 68.035 6.792 68.675 5.448C69.315 4.104 70.267 3 71.531 2.136C72.811 1.256 74.347 0.816 76.139 0.816C77.979 0.816 79.523 1.256 80.771 2.136C82.035 3 82.971 4.104 83.579 5.448C84.187 6.792 84.491 8.176 84.491 9.6C84.491 10.992 84.171 12.368 83.531 13.728C82.891 15.072 81.931 16.184 80.651 17.064C79.387 17.944 77.859 18.384 76.067 18.384ZM76.307 16.632C77.347 16.632 78.195 16.304 78.851 15.648C79.507 14.992 79.979 14.16 80.267 13.152C80.555 12.144 80.699 11.096 80.699 10.008C80.699 7.736 80.299 5.928 79.499 4.584C78.699 3.24 77.515 2.568 75.947 2.568C74.891 2.568 74.027 2.904 73.355 3.576C72.683 4.248 72.203 5.096 71.915 6.12C71.627 7.144 71.483 8.208 71.483 9.312C71.483 10.432 71.643 11.552 71.963 12.672C72.283 13.792 72.803 14.736 73.523 15.504C74.259 16.256 75.187 16.632 76.307 16.632ZM91.3271 8.424C90.9271 7.912 90.4871 7.312 90.0071 6.624H89.9831L90.0311 14.064C90.0311 14.96 89.9991 15.68 89.9351 16.224C90.4471 16.176 91.0471 16.152 91.7351 16.152V18H86.2631V16.416C86.6951 16.4 87.0231 16.352 87.2471 16.272C87.4711 16.176 87.6471 15.984 87.7751 15.696C87.9031 15.408 87.9671 14.952 87.9671 14.328L87.9191 5.136C87.9191 4.064 87.9511 3.344 88.0151 2.976L86.1911 3.048V1.2H89.9591L97.3031 10.464C97.9751 11.344 98.5351 12.104 98.9831 12.744H99.0071V5.136C99.0071 4.096 99.0311 3.376 99.0791 2.976L97.2791 3.048V1.2H102.751V2.784C102.319 2.8 101.991 2.856 101.767 2.952C101.543 3.032 101.367 3.216 101.239 3.504C101.111 3.792 101.047 4.248 101.047 4.872V18.24H99.0071L91.3271 8.424ZM116.17 18.384C115.194 18.384 114.266 18.224 113.386 17.904C112.522 17.584 111.818 17.088 111.274 16.416C110.73 15.744 110.458 14.912 110.458 13.92C110.458 12.88 110.802 11.944 111.49 11.112C112.194 10.264 113.098 9.64 114.202 9.24C113.402 8.376 112.866 7.608 112.594 6.936C112.338 6.248 112.218 5.528 112.234 4.776C112.25 3.56 112.674 2.6 113.506 1.896C114.338 1.176 115.442 0.816 116.818 0.816C117.634 0.816 118.354 0.992 118.978 1.344C119.618 1.68 120.114 2.136 120.466 2.712C120.818 3.288 120.994 3.912 120.994 4.584C120.994 5.512 120.666 6.376 120.01 7.176C119.37 7.976 118.546 8.672 117.538 9.264C117.634 9.392 118.098 9.872 118.93 10.704C119.762 11.52 120.586 12.312 121.402 13.08H121.426C121.506 12.76 121.546 12.36 121.546 11.88C121.546 11.24 121.442 10.784 121.234 10.512C121.026 10.24 120.706 10.088 120.274 10.056V8.52H124.306V10.32C124.098 10.32 123.658 10.288 122.986 10.224V10.248C123.162 10.648 123.25 11.136 123.25 11.712C123.25 12.608 123.098 13.472 122.794 14.304L123.154 14.616C124.578 15.816 125.562 16.416 126.106 16.416V18H123.538C123.394 18 123.09 17.872 122.626 17.616C122.178 17.36 121.698 17.032 121.186 16.632C120.546 17.192 119.802 17.624 118.954 17.928C118.106 18.232 117.178 18.384 116.17 18.384ZM116.458 7.992C117.034 7.56 117.482 7.008 117.802 6.336C118.122 5.648 118.282 5.024 118.282 4.464C118.282 3.872 118.138 3.4 117.85 3.048C117.562 2.68 117.178 2.496 116.698 2.496C116.234 2.496 115.85 2.688 115.546 3.072C115.242 3.456 115.09 3.984 115.09 4.656C115.09 5.136 115.218 5.696 115.474 6.336C115.746 6.96 116.074 7.512 116.458 7.992ZM116.938 16.68C118.106 16.68 119.106 16.304 119.938 15.552L118.738 14.472C117.234 13.096 115.954 11.808 114.898 10.608C114.482 10.944 114.178 11.376 113.986 11.904C113.81 12.416 113.722 12.888 113.722 13.32C113.722 14.392 114.002 15.224 114.562 15.816C115.138 16.392 115.93 16.68 116.938 16.68ZM141.313 18.384C139.617 18.384 138.153 18.008 136.921 17.256C135.705 16.504 134.769 15.488 134.113 14.208C133.473 12.912 133.153 11.456 133.153 9.84C133.153 8.32 133.465 6.872 134.089 5.496C134.729 4.104 135.673 2.976 136.921 2.112C138.185 1.248 139.705 0.816 141.481 0.816C142.169 0.816 142.945 0.92 143.809 1.128C144.689 1.336 145.433 1.624 146.041 1.992H146.065L145.969 0.983999H147.817V6.576H146.257C146.049 5.28 145.545 4.288 144.745 3.6C143.945 2.912 142.961 2.56 141.793 2.544C140.737 2.544 139.841 2.864 139.105 3.504C138.369 4.128 137.817 4.96 137.449 6C137.081 7.04 136.897 8.16 136.897 9.36C136.897 11.488 137.337 13.208 138.217 14.52C139.097 15.832 140.329 16.488 141.913 16.488C142.425 16.488 143.009 16.432 143.665 16.32C144.337 16.208 144.881 16.048 145.297 15.84V13.608C145.297 12.712 145.329 11.992 145.393 11.448C144.977 11.48 144.585 11.496 144.217 11.496L143.593 11.52V9.672H149.977V11.256C149.577 11.272 149.265 11.328 149.041 11.424C148.817 11.52 148.649 11.72 148.537 12.024C148.425 12.312 148.369 12.752 148.369 13.344V17.184H147.793C147.425 17.184 147.057 17.224 146.689 17.304C146.337 17.384 145.881 17.512 145.321 17.688C144.489 17.928 143.793 18.104 143.233 18.216C142.673 18.328 142.033 18.384 141.313 18.384ZM151.583 16.416C152.015 16.4 152.343 16.352 152.567 16.272C152.791 16.176 152.967 15.984 153.095 15.696C153.223 15.408 153.287 14.952 153.287 14.328V5.136C153.287 4.24 153.319 3.52 153.383 2.976L151.583 3.048V1.2L158.399 1.152C160.591 1.136 162.279 1.52 163.463 2.304C164.663 3.088 165.263 4.36 165.263 6.12C165.263 7.224 164.903 8.208 164.183 9.072C163.479 9.92 162.431 10.544 161.039 10.944V10.968C161.327 11.08 161.623 11.28 161.927 11.568C162.231 11.84 162.487 12.144 162.695 12.48L163.823 14.16C164.367 15.008 164.815 15.592 165.167 15.912C165.535 16.232 165.983 16.4 166.511 16.416V18H162.551C162.279 17.808 162.007 17.536 161.735 17.184C161.463 16.816 161.151 16.336 160.799 15.744L159.023 12.864C158.623 12.224 158.287 11.76 158.015 11.472H156.767V14.04C156.767 14.952 156.735 15.68 156.671 16.224C157.183 16.176 157.863 16.152 158.711 16.152V18H151.583V16.416ZM157.919 9.744C159.231 9.744 160.175 9.456 160.751 8.88C161.343 8.288 161.639 7.368 161.639 6.12C161.639 4.792 161.295 3.912 160.607 3.48C159.935 3.048 159.191 2.832 158.375 2.832C157.815 2.832 157.407 2.952 157.151 3.192C156.895 3.432 156.767 3.944 156.767 4.728V9.648C157.247 9.712 157.631 9.744 157.919 9.744ZM168.036 16.416C168.468 16.4 168.796 16.352 169.02 16.272C169.244 16.176 169.42 15.984 169.548 15.696C169.676 15.408 169.74 14.952 169.74 14.328V5.136C169.74 4.24 169.772 3.52 169.836 2.976L168.036 3.048V1.2H180.036L180.18 5.856H178.596C178.596 4.672 178.308 3.856 177.732 3.408C177.172 2.944 176.492 2.728 175.692 2.76L174.828 2.784C174.444 2.8 174.14 2.856 173.916 2.952C173.692 3.032 173.516 3.224 173.388 3.528C173.276 3.832 173.22 4.28 173.22 4.872V8.472H176.028C176.012 8.2 175.98 7.504 175.932 6.384H177.78V12.216H176.196C176.196 11.576 176.092 11.104 175.884 10.8C175.692 10.496 175.436 10.304 175.116 10.224C174.796 10.128 174.372 10.088 173.844 10.104L173.22 10.128V14.064C173.22 14.928 173.188 15.632 173.124 16.176H176.34C177.156 16.176 177.844 15.904 178.404 15.36C178.98 14.8 179.268 13.92 179.268 12.72H180.828L180.708 18H168.036V16.416ZM186.133 16.416C186.565 16.4 186.893 16.352 187.117 16.272C187.341 16.176 187.517 15.984 187.645 15.696C187.773 15.408 187.837 14.952 187.837 14.328V2.832H186.733C185.789 2.848 185.061 3.168 184.549 3.792C184.037 4.416 183.781 5.36 183.781 6.624H182.197L182.317 1.2H196.861L197.005 6.624H195.421C195.421 5.36 195.157 4.408 194.629 3.768C194.117 3.112 193.397 2.792 192.469 2.808H191.317V14.064C191.317 15.136 191.285 15.856 191.221 16.224C191.749 16.176 192.389 16.152 193.141 16.152V18H186.133V16.416ZM198.622 16.416C199.054 16.4 199.382 16.352 199.606 16.272C199.83 16.176 200.006 15.984 200.134 15.696C200.262 15.408 200.326 14.952 200.326 14.328V5.136C200.326 4.24 200.358 3.52 200.422 2.976L198.622 3.048V1.2H210.622L210.766 5.856H209.182C209.182 4.672 208.894 3.856 208.318 3.408C207.758 2.944 207.078 2.728 206.278 2.76L205.414 2.784C205.03 2.8 204.726 2.856 204.502 2.952C204.278 3.032 204.102 3.224 203.974 3.528C203.862 3.832 203.806 4.28 203.806 4.872V8.472H206.614C206.598 8.2 206.566 7.504 206.518 6.384H208.366V12.216H206.782C206.782 11.576 206.678 11.104 206.47 10.8C206.278 10.496 206.022 10.304 205.702 10.224C205.382 10.128 204.958 10.088 204.43 10.104L203.806 10.128V14.064C203.806 14.928 203.774 15.632 203.71 16.176H206.926C207.742 16.176 208.43 15.904 208.99 15.36C209.566 14.8 209.854 13.92 209.854 12.72H211.414L211.294 18H198.622V16.416ZM213.598 16.416C214.03 16.4 214.358 16.352 214.582 16.272C214.806 16.176 214.982 15.984 215.11 15.696C215.238 15.408 215.302 14.952 215.302 14.328V5.136C215.302 4.24 215.334 3.52 215.398 2.976L213.598 3.048V1.2H220.486V2.784C220.054 2.8 219.726 2.856 219.502 2.952C219.278 3.032 219.102 3.216 218.974 3.504C218.846 3.792 218.782 4.248 218.782 4.872V14.064C218.782 14.928 218.75 15.632 218.686 16.176H221.902C222.862 16.16 223.606 15.824 224.134 15.168C224.662 14.496 224.926 13.52 224.926 12.24H226.534L226.39 18H213.598V16.416Z" fill="#B89B5E"/>
</svg>
