<svg width="20" height="18" viewBox="0 0 20 18" fill="none" xmlns="http://www.w3.org/2000/svg">
<path d="M20 2.79932C19.2639 3.1255 18.474 3.34671 17.6441 3.44546C18.4915 2.93805 19.1401 2.13321 19.4475 1.17713C18.6527 1.64703 17.7754 1.98824 16.8405 2.17321C16.0919 1.37462 15.0271 0.877197 13.8461 0.877197C11.5803 0.877197 9.7431 2.71435 9.7431 4.97893C9.7431 5.3001 9.77934 5.6138 9.84934 5.91376C6.44 5.74252 3.41683 4.10909 1.39346 1.62703C1.03977 2.23194 0.838562 2.93677 0.838562 3.68916C0.838562 5.11265 1.56343 6.36867 2.66323 7.1035C1.99085 7.08102 1.35846 6.89605 0.804836 6.5886V6.63984C0.804836 8.62697 2.21957 10.2854 4.09546 10.6628C3.75176 10.7553 3.38935 10.8066 3.01441 10.8066C2.74948 10.8066 2.49327 10.7803 2.24206 10.7303C2.76444 12.3613 4.27918 13.5473 6.07385 13.5798C4.67036 14.6796 2.90069 15.3332 0.978562 15.3332C0.647385 15.3332 0.321176 15.3132 0 15.277C1.81591 16.443 3.97176 17.1229 6.28882 17.1229C13.8361 17.1229 17.9616 10.8716 17.9616 5.45011L17.9479 4.91896C18.754 4.34403 19.4513 3.62167 20 2.79932Z" fill="#B89B5E"/>
</svg>
